PathFileType	4	(X/Y/Z)	7_coords_data.trc
DataRate	CameraRate	NumFrames	NumMarkers	Units	OrigDataRate	OrigDataStartFrame	OrigNumFrames
30.0	30.0	7	21	m	30.0	40	49
Frame#	Time	THUMB_TIP	THUMB_IP	THUMB_MCP	THUMB_CMC	INDEX_TIP	INDEX_DIP	INDEX_PIP	INDEX_MCP	MIDDLE_TIP	MIDDLE_DIP	MIDDLE_PIP	MIDDLE_MCP	RING_TIP	RING_DIP	RING_PIP	RING_MCP	PINKY_TIP	PINKY_DIP	PINKY_PIP	PINKY_MCP	WRIST
X1	Y1	Z1	X2	Y2	Z2	X3	Y3	Z3	X4	Y4	Z4	X5	Y5	Z5	X6	Y6	Z6	X7	Y7	Z7	X8	Y8	Z8	X9	Y9	Z9	X10	Y10	Z10	X11	Y11	Z11	X12	Y12	Z12	X13	Y13	Z13	X14	Y14	Z14	X15	Y15	Z15	X16	Y16	Z16	X17	Y17	Z17	X18	Y18	Z18	X19	Y19	Z19	X20	Y20	Z20	X21	Y21	Z21
39	1.3	-0.025686899185180665	-0.08669039916992187	1.0229199829101563	-0.029510000228881835	-0.06478369903564453	1.0366500244140624	-0.040128299713134766	-0.045820499420166014	1.0553599853515625	-0.04052799987792969	-0.013534899711608886	1.06743994140625	-0.014328900337219239	-0.0526525993347168	0.9428359985351562	-0.028803600311279296	-0.045868698120117186	0.957260986328125	-0.04035029983520508	-0.03890010070800781	0.975375	-0.04331449890136719	-0.02815839958190918	1.0100900268554687	-0.02091830062866211	-0.013593899726867675	0.9150250244140625	-0.028611000061035157	-0.011018799781799317	0.938322998046875	-0.03689179992675781	-0.008935179710388184	0.9652949829101563	-0.04088740158081055	-0.0064184398651123045	1.0031099853515626	-0.016690399169921873	0.00944575023651123	0.9260139770507813	-0.023224899291992188	0.011599599838256836	0.9483930053710937	-0.029549200057983397	0.013271400451660156	0.9728289794921875	-0.032848499298095704	0.012796099662780763	1.0061199951171875	-0.008498600006103516	0.04946480178833008	0.9571079711914062	-0.014559300422668457	0.04414759826660156	0.974864013671875	-0.019487300872802735	0.03894049835205078	0.990552001953125	-0.0245846004486084	0.029340599060058595	1.0141599731445312	-0.05737139892578125	0.01615880012512207	1.0768299560546875
40	1.3333333333333333	-0.02802459907531738	-0.08762370300292968	1.0223599853515626	-0.03117020034790039	-0.06556939697265625	1.0361400146484374	-0.041292198181152345	-0.046349700927734376	1.0548499755859375	-0.041146499633789066	-0.013991100311279297	1.067	-0.016729900360107422	-0.05335749816894531	0.9409949951171875	-0.030416099548339844	-0.046413501739501956	0.956218017578125	-0.04127920150756836	-0.03940650177001953	0.9747410278320312	-0.043927799224853514	-0.02856180000305176	1.0096099853515625	-0.022072099685668947	-0.014244000434875488	0.9141099853515625	-0.029318199157714844	-0.011703200340270996	0.9376840209960937	-0.03720920181274414	-0.00959140968322754	0.9647379760742187	-0.041040699005126954	-0.006901150226593018	1.0025499877929687	-0.0165231990814209	0.008456500053405761	0.9254829711914062	-0.02300130081176758	0.010718299865722656	0.947906982421875	-0.02928619956970215	0.012503399848937988	0.97227197265625	-0.03266260147094727	0.012221400260925292	1.005510009765625	-0.007470779895782471	0.04850669860839844	0.9567219848632813	-0.013694199562072754	0.043299198150634766	0.9743590087890625	-0.018804000854492187	0.03817490005493164	0.9899869995117188	-0.024287599563598633	0.028643999099731445	1.0135399780273437	-0.057574699401855466	0.015931900024414063	1.076489990234375
41	1.3666666666666667	-0.02848240089416504	-0.08745490264892578	1.0208200073242188	-0.03154750061035156	-0.06539949798583984	1.0348399658203125	-0.04141880035400391	-0.04634379959106445	1.053780029296875	-0.04152959823608399	-0.01403849983215332	1.0663199462890625	-0.01716710090637207	-0.052396800994873045	0.9397030029296874	-0.03085219955444336	-0.04563619995117187	0.9551589965820313	-0.041671398162841794	-0.038799400329589846	0.973864013671875	-0.044285499572753906	-0.028326499938964845	1.008739990234375	-0.02239189910888672	-0.012909099578857422	0.9132930297851563	-0.02967169952392578	-0.010658599853515626	0.93685400390625	-0.03762210083007812	-0.00887104034423828	0.9639609985351563	-0.041495098114013675	-0.006583330154418946	1.0017899780273438	-0.01659210014343262	0.009308130264282226	0.9248319702148438	-0.02324250030517578	0.011436900138854981	0.947291015625	-0.029667800903320312	0.01304740047454834	0.9716710205078125	-0.03326020050048828	0.0125201997756958	1.0048699951171876	-0.0067083902359008785	0.04871379852294922	0.956510009765625	-0.013338000297546386	0.043558998107910155	0.9740780029296875	-0.018809099197387696	0.03846390151977539	0.9896119995117187	-0.024800100326538087	0.028914499282836913	1.0130399780273438	-0.05789569854736328	0.015760899543762207	1.0761099853515625
42	1.4	-0.027416799545288088	-0.08641919708251954	1.0193699951171875	-0.030883699417114257	-0.0645552978515625	1.0335699462890624	-0.04112419891357422	-0.045831298828125	1.052760009765625	-0.041345100402832034	-0.013785300254821777	1.0654300537109376	-0.01729949951171875	-0.05052669906616211	0.9386619873046875	-0.031093599319458008	-0.044069801330566406	0.9540009765625	-0.041989498138427735	-0.03755030059814453	0.9726279907226563	-0.04457949829101562	-0.027495399475097656	1.0077000122070312	-0.022789100646972656	-0.01070009994506836	0.9125540161132812	-0.030291900634765626	-0.008797160148620605	0.9361010131835937	-0.038446998596191405	-0.007314020156860351	0.9631680297851563	-0.04217950057983398	-0.0056225800514221195	1.0009400024414064	-0.016390199661254882	0.011272199630737305	0.9244500122070313	-0.023421699523925782	0.013171699523925781	0.9467329711914062	-0.030191200256347656	0.014496000289916992	0.9710670166015625	-0.033954700469970706	0.013453100204467773	1.004260009765625	-0.0060754499435424795	0.04953889846801758	0.9564240112304687	-0.01322070026397705	0.04445380020141602	0.9738150024414063	-0.01904560089111328	0.0393396987915039	0.9892559814453125	-0.025374399185180665	0.029783599853515624	1.01252001953125	-0.057927398681640624	0.015929300308227538	1.0756400146484375
43	1.4333333333333333	-0.025499900817871093	-0.0844833984375	1.0171799926757812	-0.029509300231933593	-0.0629984016418457	1.0318299560546875	-0.04031629943847656	-0.04488169860839844	1.05147998046875	-0.041340999603271485	-0.013006299972534179	1.0648399658203125	-0.01736389923095703	-0.048126800537109375	0.9376630249023438	-0.03135899925231934	-0.04197370147705078	0.952989990234375	-0.04247019958496094	-0.035775699615478516	0.9716610107421875	-0.044885398864746094	-0.026212499618530272	1.0068800048828126	-0.02227389907836914	-0.008256710052490235	0.9122969970703125	-0.03025550079345703	-0.00656279993057251	0.9356300048828124	-0.03883810043334961	-0.005420589923858642	0.96252099609375	-0.04259980010986328	-0.004211669921875	1.000239990234375	-0.015582900047302246	0.013449000358581544	0.9244249877929688	-0.023133199691772462	0.015167699813842774	0.9464630126953125	-0.03044289970397949	0.01630030059814453	0.9706079711914063	-0.03444580078125	0.014848999977111817	1.003760009765625	-0.004501190185546875	0.051205501556396485	0.9572960205078125	-0.012227299690246583	0.046036300659179685	0.9743489990234375	-0.018596200942993163	0.04076599884033203	0.9894010009765625	-0.025684799194335937	0.031010799407958985	1.0123200073242187	-0.05787689971923828	0.016363399505615234	1.0751500244140626
44	1.4666666666666666	-0.020850400924682617	-0.08095570373535156	1.0140900268554687	-0.026723400115966797	-0.06045759963989258	1.0294599609375	-0.038937599182128906	-0.043539798736572266	1.0498800048828125	-0.040823699951171875	-0.01219200038909912	1.06372998046875	-0.017012699127197266	-0.04424020004272461	0.9362630004882813	-0.03127989959716797	-0.03867250061035156	0.9515590209960938	-0.04256819915771484	-0.033052700042724606	0.970197998046875	-0.04504159927368164	-0.024394399642944337	1.0056199951171876	-0.0205802001953125	-0.004194980144500733	0.9120689697265625	-0.029374799728393554	-0.003037070035934448	0.9350449829101563	-0.03871419906616211	-0.0025078999996185304	0.9616400146484375	-0.04300870132446289	-0.0022425301074981687	0.9994760131835938	-0.013812299728393554	0.016900699615478517	0.9246160278320312	-0.022052000045776367	0.018218099594116213	0.946426025390625	-0.030140100479125978	0.018946399688720705	0.9703410034179687	-0.03492340087890625	0.01676449966430664	1.003260009765625	-0.001906479954719543	0.053552200317382816	0.9588820190429688	-0.010543499946594238	0.048254600524902345	0.9753499755859375	-0.01767690086364746	0.04285649871826172	0.989927978515625	-0.02595409965515137	0.03266139984130859	1.0121900024414063	-0.057583099365234376	0.016701499938964845	1.07456005859375
45	1.5	-0.016791900634765624	-0.07735980224609375	1.0119400024414062	-0.02462689971923828	-0.05800239944458008	1.027949951171875	-0.03793069839477539	-0.04227489852905274	1.048739990234375	-0.040489601135253905	-0.01129990005493164	1.0629300537109374	-0.01602000045776367	-0.040722900390625	0.9350780029296875	-0.03061109924316406	-0.03556840133666992	0.9503930053710937	-0.04221549987792969	-0.030495599746704103	0.96902099609375	-0.04510129928588867	-0.022677799224853516	1.0045700073242188	-0.018846399307250978	-0.00017483800649642901	0.9118720092773438	-0.02823460006713867	0.000500913023948669	0.9346170043945312	-0.03819660186767578	0.00038245698809623703	0.9609990234375	-0.04325690078735352	-0.00035539400577545106	0.9989439697265625	-0.012499699592590332	0.020058900833129882	0.9246279907226562	-0.02118630027770996	0.021102800369262695	0.9462349853515625	-0.029741500854492186	0.02142919921875	0.9699669799804688	-0.03501250076293945	0.018543699264526366	1.0029500122070312	-4.1727300733327e-05	0.055450000762939454	0.9597520141601562	-0.009174699783325196	0.05003929901123047	0.9758709716796875	-0.016797100067138672	0.04457740020751953	0.9902050170898438	-0.025777000427246094	0.03421060180664062	1.0121699829101563	-0.057248401641845706	0.017400400161743164	1.0740799560546874
